<svg width="201" height="28" viewBox="0 0 201 28" fill="none" xmlns="http://www.w3.org/2000/svg">
<path d="M6.31108 0.818181V27H0.775568V0.818181H6.31108ZM9.71425 5.3821V0.818181H31.2171V5.3821H23.2015V27H17.7299V5.3821H9.71425ZM48.6758 27L41.1843 0.818181H47.2312L51.565 19.0099H51.7823L56.5636 0.818181H61.7411L66.5096 19.0483H66.7397L71.0735 0.818181H77.1204L69.6289 27H64.234L59.2482 9.8821H59.0437L54.0707 27H48.6758ZM79.9291 27V0.818181H97.5711V5.3821H85.4646V11.6207H96.6635V16.1847H85.4646V22.4361H97.6223V27H79.9291ZM101.818 27V0.818181H112.301C114.227 0.818181 115.834 1.10369 117.121 1.67472C118.408 2.24574 119.375 3.03835 120.023 4.05256C120.67 5.05824 120.994 6.21733 120.994 7.52983C120.994 8.55256 120.79 9.4517 120.381 10.2273C119.971 10.9943 119.409 11.625 118.693 12.1193C117.986 12.6051 117.176 12.9503 116.264 13.1548V13.4105C117.261 13.4531 118.194 13.7344 119.064 14.2543C119.942 14.7741 120.653 15.5028 121.199 16.4403C121.744 17.3693 122.017 18.4773 122.017 19.7642C122.017 21.1534 121.672 22.3935 120.981 23.4844C120.3 24.5668 119.29 25.4233 117.952 26.054C116.614 26.6847 114.964 27 113.004 27H101.818ZM107.354 22.4744H111.866C113.409 22.4744 114.534 22.1804 115.241 21.5923C115.949 20.9957 116.302 20.2031 116.302 19.2145C116.302 18.4901 116.128 17.8509 115.778 17.2969C115.429 16.7429 114.93 16.3082 114.283 15.9929C113.643 15.6776 112.881 15.5199 111.994 15.5199H107.354V22.4744ZM107.354 11.7741H111.457C112.216 11.7741 112.889 11.642 113.477 11.3778C114.074 11.1051 114.543 10.7216 114.883 10.2273C115.233 9.73295 115.408 9.14062 115.408 8.45028C115.408 7.50426 115.071 6.74148 114.398 6.16193C113.733 5.58239 112.787 5.29261 111.56 5.29261H107.354V11.7741ZM139.668 8.34801C139.566 7.31676 139.127 6.51562 138.351 5.9446C137.576 5.37358 136.523 5.08807 135.194 5.08807C134.29 5.08807 133.527 5.21591 132.905 5.47159C132.283 5.71875 131.806 6.06392 131.473 6.5071C131.15 6.95028 130.988 7.45312 130.988 8.01562C130.971 8.48438 131.069 8.89347 131.282 9.2429C131.503 9.59233 131.806 9.89489 132.189 10.1506C132.573 10.3977 133.016 10.6151 133.519 10.8026C134.022 10.9815 134.559 11.1349 135.13 11.2628L137.482 11.8253C138.624 12.081 139.672 12.4219 140.627 12.848C141.581 13.2741 142.408 13.7983 143.107 14.4205C143.806 15.0426 144.347 15.7756 144.73 16.6193C145.123 17.4631 145.323 18.4304 145.331 19.5213C145.323 21.1236 144.914 22.5128 144.104 23.6889C143.303 24.8565 142.144 25.7642 140.627 26.4119C139.118 27.0511 137.299 27.3707 135.168 27.3707C133.054 27.3707 131.213 27.0469 129.645 26.3991C128.086 25.7514 126.867 24.7926 125.989 23.5227C125.12 22.2443 124.664 20.6634 124.621 18.7798H129.978C130.037 19.6577 130.289 20.3906 130.732 20.9787C131.184 21.5582 131.784 21.9972 132.534 22.2955C133.293 22.5852 134.15 22.7301 135.104 22.7301C136.042 22.7301 136.855 22.5937 137.546 22.321C138.245 22.0483 138.786 21.669 139.169 21.1832C139.553 20.6974 139.745 20.1392 139.745 19.5085C139.745 18.9205 139.57 18.4261 139.221 18.0256C138.88 17.625 138.377 17.2841 137.712 17.0028C137.056 16.7216 136.25 16.4659 135.296 16.2358L132.445 15.5199C130.238 14.983 128.495 14.1435 127.216 13.0014C125.938 11.8594 125.303 10.321 125.311 8.38636C125.303 6.80114 125.725 5.41619 126.577 4.23153C127.438 3.04687 128.618 2.12216 130.118 1.45739C131.618 0.792613 133.323 0.460226 135.232 0.460226C137.175 0.460226 138.871 0.792613 140.32 1.45739C141.777 2.12216 142.911 3.04687 143.721 4.23153C144.53 5.41619 144.948 6.78835 144.973 8.34801H139.668ZM154.436 0.818181V27H148.901V0.818181H154.436ZM157.839 5.3821V0.818181H179.342V5.3821H171.327V27H165.855V5.3821H157.839ZM182.729 27V0.818181H200.371V5.3821H188.265V11.6207H199.464V16.1847H188.265V22.4361H200.423V27H182.729Z" fill="white"/>
</svg>
